# Blender v3.1.2 OBJ File: ''
# www.blender.org
mtllib cube3.mtl
o cube2_DIFFERENCE_cube2.001
v -1.000000 1.000000 -1.000000
v 1.000000 1.000000 -1.000000
v 1.000000 1.000000 1.000000
v -1.000000 1.000000 1.000000
v -1.000000 -1.000000 -1.000000
v 1.000000 -1.000000 -1.000000
v 1.000000 -1.000000 1.000000
v -1.000000 -1.000000 1.000000
v 0.000000 -1.500000 -0.000000
vn 0.0000 -1.0000 -0.0000
vn 0.0000 0.0000 -1.0000
vn 0.0000 -0.0000 1.0000
vn 1.0000 0.0000 0.0000
vn 0.0000 -0.8944 -0.4472
vn 0.4472 -0.8944 -0.0000
vn -0.7071 -0.0000 0.7071
vn 0.0000 1.0000 0.0000
usemtl Default_OBJ.001
s off
f 5//1 6//1 7//1 8//1
f 1//2 2//2 6//2 5//2
f 3//3 4//3 8//3 7//3
f 2//4 3//4 7//4 6//4
f 9//5 5//5 6//5
f 9//6 6//6 7//6
f 5//7 9//7 7//7
f 6//8 5//8 7//8
